# xmcd CD database file
#
# Track frame offsets:
#	183
#	10608
#	42193
#	69218
#	81103
#	94430
#	110440
#	134710
#	150233
#	161870
#	177053
#	191933
#	207153
#	221475
#	251548
#	281663
#	296855
#	312833
#	328803
#
# Disc length: 4549 seconds
#
# Revision: 0
# Processed by: cddbd v1.5.1PL0 Copyright (c) Steve Scherf et al.
# Submitted via: CDex 1.51
#
DISCID=1711c313
DTITLE=Variaous - Le Paris bleu
DYEAR=1992
DGENRE=Jazz
TTITLE0=Charles Trenet - Boom!
TTITLE1=Dexter Gordon - Le Coiffeur
TTITLE2=Milt Jackson - Afternoon In Paris
TTITLE3=Lou Levy - Under Paris Skies
TTITLE4=Dinah Shore - April In Paris
TTITLE5=Annette Banneville - Rendez-vous à Saint Germain
TTITLE6=Michel Petrucciani - Memories Of Paris
TTITLE7=Bud Powell - Parisian Throughfare
TTITLE8=Gus Viseur - Swing Valse
TTITLE9=Bireli Lagrenen - Made In France
TTITLE10=Django Reinhardt - Nuages
TTITLE11=Joe Pass - Django
TTITLE12=Beverly Kennedy - This Little Town In Paris
TTITLE13=Thad Jones - April In Paris
TTITLE14=Larry Young - Paris Eyes
TTITLE15=Zoot Sims - Evening In Paris
TTITLE16=Chris Connor - I Wish You Love
TTITLE17=Emmanuelle Torente - Sous le ciel de Paris
TTITLE18=Hot Club Of France - Echoes Of France
EXTD=YEAR: 1992
EXTT0=
EXTT1=
EXTT2=
EXTT3=
EXTT4=
EXTT5=
EXTT6=
EXTT7=
EXTT8=
EXTT9=
EXTT10=
EXTT11=
EXTT12=
EXTT13=
EXTT14=
EXTT15=
EXTT16=
EXTT17=
EXTT18=
PLAYORDER=
